<svg width="100%" height="100%" viewBox="0 0 800 600" xmlns="http://www.w3.org/2000/svg" role="img" aria-labelledby="heroIllustrationTitle">
  <title id="heroIllustrationTitle">Abstract investment dashboard with growth metrics and data visualization</title>
  <defs>
    <linearGradient id="bgGradient" x1="0" y1="0" x2="1" y2="1">
      <stop offset="0%" stop-color="#0c1f3d" />
      <stop offset="100%" stop-color="#07111f" />
    </linearGradient>
    <linearGradient id="accentGradient" x1="0" y1="0" x2="1" y2="1">
      <stop offset="0%" stop-color="#2dd4bf" />
      <stop offset="100%" stop-color="#10b981" />
    </linearGradient>
    <linearGradient id="barGradient" x1="0" y1="0" x2="1" y2="0">
      <stop offset="0%" stop-color="#4b96ff" />
      <stop offset="100%" stop-color="#2dd4bf" />
    </linearGradient>
  </defs>
  <rect width="800" height="600" rx="40" fill="url(#bgGradient)" />
  <rect x="40" y="40" width="720" height="520" rx="32" fill="rgba(255,255,255,0.04)" />
  <rect x="80" y="100" width="280" height="160" rx="24" fill="rgba(255,255,255,0.08)" />
  <rect x="80" y="280" width="240" height="120" rx="20" fill="rgba(255,255,255,0.08)" />
  <path d="M110 150 C150 130, 190 160, 230 140 S310 160, 350 145" fill="none" stroke="url(#accentGradient)" stroke-width="12" stroke-linecap="round" />
  <path d="M110 180 C160 170, 200 210, 240 200 S320 230, 360 210" fill="none" stroke="#7dd3fc" stroke-width="8" stroke-linecap="round" opacity="0.8" />
  <g opacity="0.95">
    <rect x="400" y="100" width="280" height="120" rx="20" fill="#0f1d33" />
    <rect x="420" y="130" width="40" height="40" rx="12" fill="url(#barGradient)" />
    <rect x="470" y="130" width="110" height="20" rx="10" fill="#132a46" />
    <rect x="470" y="160" width="180" height="18" rx="9" fill="#132a46" />
    <circle cx="470" cy="220" r="18" fill="#2dd4bf" />
    <circle cx="520" cy="220" r="14" fill="#c7f9f1" />
    <circle cx="570" cy="220" r="10" fill="#0f1d33" />
  </g>
  <g fill="#ffffff" opacity="0.85">
    <rect x="80" y="440" width="120" height="18" rx="9" />
    <rect x="80" y="470" width="320" height="24" rx="12" />
    <rect x="80" y="510" width="210" height="18" rx="9" />
    <rect x="420" y="450" width="130" height="18" rx="9" fill="rgba(255,255,255,0.12)" />
    <rect x="420" y="485" width="220" height="20" rx="10" fill="rgba(255,255,255,0.12)" />
  </g>
  <g transform="translate(430 320)">
    <path d="M0 0h260v120h-260z" fill="rgba(255,255,255,0.07)" rx="22" />
    <rect x="20" y="20" width="60" height="60" rx="18" fill="url(#accentGradient)" />
    <path d="M110 40 h90" stroke="#dbeafe" stroke-width="10" stroke-linecap="round" />
    <path d="M110 65 h60" stroke="#cbd5e1" stroke-width="10" stroke-linecap="round" />
    <circle cx="170" cy="80" r="22" fill="#0f1d33" />
    <path d="M160 75 l10 10 l15 -25" fill="none" stroke="#2dd4bf" stroke-width="8" stroke-linecap="round" />
  </g>
</svg>
